<?xml version="1.0" encoding="iso-8859-1"?>
<!-- Uploaded to: SVG Repo, www.svgrepo.com, Generator: SVG Repo Mixer Tools -->
<svg height="800px" width="800px" version="1.1" id="Layer_1" xmlns="http://www.w3.org/2000/svg" xmlns:xlink="http://www.w3.org/1999/xlink" 
	 viewBox="0 0 511.998 511.998" xml:space="preserve">
<path style="fill:#FFCD00;" d="M12.225,244.44c0,0-4.793,34.707,13.49,52.124c18.282,17.417,52.716,10.949,52.716,10.949
	s4.793-34.707-13.49-52.124c-7.187-6.847-16.87-10.003-25.976-11.311L12.225,244.44z"/>
<path style="opacity:0.29;fill:#CCA400;enable-background:new    ;" d="M78.431,287.549c0,0-34.434,6.468-52.716-10.949
	c-8.976-8.551-12.383-21.264-13.534-31.997c-0.435,3.62-3.691,35.364,13.534,51.774c18.282,17.417,52.716,10.949,52.716,10.949
	s1.236-8.999,0.044-20.128C78.448,287.422,78.431,287.549,78.431,287.549z"/>
<path style="fill:#FFCD00;" d="M45.131,330.57c24.153-7.363,52.025,13.866,52.025,13.866s-11.289,33.168-35.442,40.531
	C37.56,392.33,9.689,371.101,9.689,371.101S20.978,337.933,45.131,330.57z"/>
<path style="opacity:0.29;fill:#CCA400;enable-background:new    ;" d="M61.714,370.74c-18.052,5.503-38.176-4.963-47.193-10.603
	c-3.248,6.205-4.832,10.856-4.832,10.856s27.871,21.229,52.025,13.866c24.153-7.363,35.442-40.531,35.442-40.531
	s-1.783-1.357-4.832-3.264C86.898,351.43,76.824,366.134,61.714,370.74z"/>
<path style="fill:#FFCD00;" d="M131.043,267.302c6.782-2.139,11.867-2.273,11.867-2.273s14.299,31.985,1.612,53.817
	c-12.688,21.832-47.557,25.244-47.557,25.244s-14.299-31.985-1.613-53.817c2.427-4.177,5.665-7.679,9.316-10.612
	C104.67,279.66,112.631,273.108,131.043,267.302z"/>
<path style="opacity:0.29;fill:#CCA400;enable-background:new    ;" d="M144.522,302.701
	c-12.688,21.832-47.557,25.244-47.557,25.244s-4.755-10.655-6.344-23.858c-2.703,19.28,6.344,39.547,6.344,39.547
	s34.869-3.412,47.557-25.244c5.366-9.234,5.898-20.28,4.732-29.959C148.562,293.37,147.109,298.247,144.522,302.701z"/>
<path style="fill:#FFCD00;" d="M103.481,382.752c23.148-10.088,53.273,7.801,53.273,7.801s-7.406,34.245-30.554,44.332
	s-53.273-7.801-53.273-7.801S80.333,392.84,103.481,382.752z"/>
<path style="opacity:0.29;fill:#CCA400;enable-background:new    ;" d="M126.201,418.804c-17.745,7.733-39.573-0.969-48.805-5.455
	c-3.175,7.667-4.469,13.62-4.469,13.62s30.125,17.889,53.273,7.801c23.148-10.087,30.554-44.332,30.554-44.332
	s-1.657-0.98-4.469-2.346C147.842,398.823,139.703,412.919,126.201,418.804z"/>
<path style="fill:#FFCD00;" d="M152.224,336.766c11.49-22.485,46.124-27.775,46.124-27.775s16.006,31.167,4.516,53.651
	c-11.49,22.485-46.124,27.775-46.124,27.775S140.734,359.251,152.224,336.766z"/>
<path style="opacity:0.29;fill:#CCA400;enable-background:new    ;" d="M202.864,348.562c-11.49,22.485-46.124,27.775-46.124,27.775
	s-6.358-12.393-8.181-27.185c-2.861,20.18,8.181,41.706,8.181,41.706s34.634-5.29,46.124-27.775
	c4.245-8.308,4.732-17.798,3.664-26.467C205.948,340.718,204.806,344.765,202.864,348.562z"/>
<path style="fill:#FFCD00;" d="M161.852,421.427c14.158-20.908,47.834-20.465,47.834-20.465s13.412,31.442-0.745,52.351
	c-14.157,20.909-49.18,21.914-49.18,21.914S147.694,442.334,161.852,421.427z"/>
<path style="opacity:0.29;fill:#CCA400;enable-background:new    ;" d="M208.94,437.298c-14.158,20.908-49.18,21.914-49.18,21.914
	s-3.134-8.562-4.332-19.72c-2.193,17.743,4.332,35.561,4.332,35.561s35.022-1.006,49.18-21.914
	c6.627-9.787,7.213-21.881,5.962-31.98C214.103,426.757,212.308,432.325,208.94,437.298z"/>
<g>
	<path style="fill:#FFCD00;" d="M448.963,255.381c17.842-17.842,52.677-10.941,52.677-10.941s4.789,34.681-13.479,52.084
		c-18.268,17.404-52.677,10.941-52.677,10.941s-2.205-10.797,0.332-23.142C436.495,281.021,433.846,270.498,448.963,255.381z"/>
	<path style="fill:#FFCD00;" d="M468.758,330.504c-24.135-7.358-51.986,13.856-51.986,13.856s11.28,33.142,35.415,40.5
		c24.135,7.358,51.986-13.856,51.986-13.856S492.893,337.861,468.758,330.504z"/>
	<path style="fill:#FFCD00;" d="M418.575,290.236c-12.678-21.816-47.521-25.224-47.521-25.224s-14.289,31.961-1.611,53.776
		c12.678,21.816,47.521,25.224,47.521,25.224S431.252,312.052,418.575,290.236z"/>
	<path style="fill:#FFCD00;" d="M410.452,382.647c-23.131-10.08-53.233,7.795-53.233,7.795s7.4,34.218,30.531,44.298
		c23.131,10.08,53.233-7.795,53.233-7.795S433.583,392.728,410.452,382.647z"/>
	<path style="fill:#FFCD00;" d="M361.746,336.695c-11.481-22.469-46.09-27.754-46.09-27.754s-15.994,31.143-4.513,53.611
		c11.481,22.469,46.09,27.754,46.09,27.754S373.227,359.163,361.746,336.695z"/>
	<path style="fill:#FFCD00;" d="M352.126,421.292c-14.125-20.891-48.886-21.883-49.142-21.898c0,0-12.058,32.867,2.089,53.76
		c14.147,20.893,49.142,21.898,49.142,21.898S366.258,442.194,352.126,421.292z"/>
	<polygon style="fill:#FFCD00;" points="73.791,47.684 79.391,36.767 102.086,81.008 151.175,88.921 116.113,124.177 
		123.755,173.308 79.391,150.857 35.026,173.308 42.669,124.177 7.607,88.921 56.695,81.008 59.985,74.594 	"/>
	<polygon style="fill:#FFCD00;" points="429.233,43.349 432.609,36.767 455.305,81.008 504.394,88.921 469.331,124.177 
		476.975,173.308 432.609,150.857 388.244,173.308 395.887,124.177 360.825,88.921 409.913,81.008 413.218,74.568 	"/>
	<polygon style="fill:#FFCD00;" points="254.24,143.49 257.869,136.417 280.565,180.657 329.653,188.57 294.591,223.826 
		302.234,272.958 257.869,250.507 213.503,272.958 221.146,223.826 186.084,188.57 235.173,180.657 238.161,174.834 	"/>
	<path style="fill:#FFCD00;" d="M287.01,345.071c-0.005,25.251-28.142,43.76-28.142,43.76s-28.731-18.52-28.727-43.771
		c0.005-25.251,28.443-45.715,28.443-45.715S287.015,319.82,287.01,345.071z"/>
</g>
<g>
	<path style="opacity:0.29;fill:#CCA400;enable-background:new    ;" d="M258.869,369.677c0,0-21.712-14.005-27.379-34.258
		c-0.849,3.109-1.347,6.333-1.348,9.641c-0.005,25.251,28.727,43.771,28.727,43.771s28.137-18.509,28.142-43.76
		c0.001-3.296-0.492-6.507-1.334-9.606C280.105,355.697,258.869,369.677,258.869,369.677z"/>
	<path style="opacity:0.29;fill:#CCA400;enable-background:new    ;" d="M435.194,287.549c0,0,34.434,6.468,52.716-10.949
		c8.976-8.551,12.383-21.264,13.534-31.997c0.435,3.62,3.691,35.364-13.534,51.774c-18.282,17.417-52.716,10.949-52.716,10.949
		s-1.236-8.999-0.044-20.128C435.177,287.422,435.194,287.549,435.194,287.549z"/>
	<path style="opacity:0.29;fill:#CCA400;enable-background:new    ;" d="M451.91,370.74c18.052,5.503,38.176-4.963,47.193-10.603
		c3.248,6.205,4.832,10.856,4.832,10.856s-27.871,21.229-52.025,13.866c-24.153-7.363-35.442-40.531-35.442-40.531
		s1.783-1.357,4.832-3.264C426.727,351.43,436.802,366.134,451.91,370.74z"/>
	<path style="opacity:0.29;fill:#CCA400;enable-background:new    ;" d="M369.104,302.701
		c12.688,21.832,47.557,25.244,47.557,25.244s4.755-10.655,6.344-23.858c2.703,19.28-6.344,39.547-6.344,39.547
		s-34.869-3.412-47.557-25.244c-5.366-9.234-5.898-20.28-4.732-29.959C365.064,293.37,366.515,298.247,369.104,302.701z"/>
	<path style="opacity:0.29;fill:#CCA400;enable-background:new    ;" d="M387.424,418.804c17.745,7.733,39.573-0.969,48.805-5.455
		c3.175,7.667,4.469,13.62,4.469,13.62s-30.125,17.889-53.273,7.801c-23.148-10.087-30.554-44.332-30.554-44.332
		s1.657-0.98,4.469-2.346C365.783,398.823,373.922,412.919,387.424,418.804z"/>
	<path style="opacity:0.29;fill:#CCA400;enable-background:new    ;" d="M310.761,348.562c11.49,22.485,46.124,27.775,46.124,27.775
		s6.358-12.393,8.181-27.185c2.861,20.18-8.181,41.706-8.181,41.706s-34.634-5.29-46.124-27.775
		c-4.245-8.308-4.732-17.798-3.664-26.467C307.677,340.718,308.819,344.765,310.761,348.562z"/>
	<path style="opacity:0.29;fill:#CCA400;enable-background:new    ;" d="M304.684,437.298c14.158,20.908,49.18,21.914,49.18,21.914
		s3.134-8.562,4.332-19.72c2.193,17.743-4.332,35.561-4.332,35.561s-35.022-1.006-49.18-21.914
		c-6.627-9.787-7.213-21.881-5.961-31.98C299.522,426.757,301.318,432.325,304.684,437.298z"/>
</g>
<g style="opacity:0.32;">
	<path style="fill:#FFFFFF;" d="M116.784,83.377l-14.697-2.369L79.391,36.767l-5.6,10.917l-13.805,26.91l-3.29,6.413L7.607,88.922
		l35.062,35.256l-0.696,4.471C62.513,122.979,92.215,110.416,116.784,83.377z"/>
</g>
<g style="opacity:0.24;">
	<path style="fill:#FFFFFF;" d="M466.145,82.696l-10.84-1.747l-22.696-44.241l-3.376,6.582L413.218,74.51l-3.303,6.439
		l-49.089,7.914l35.062,35.256l-0.714,4.587C416.489,123.194,446.865,110.702,466.145,82.696z"/>
</g>
<g style="opacity:0.24;">
	<path style="fill:#FFFFFF;" d="M291.404,182.405l-10.84-1.747l-22.696-44.241l-3.376,6.582l-16.015,31.219l-3.303,6.439
		l-49.089,7.914l35.062,35.256l-0.714,4.587C241.749,222.901,272.124,210.409,291.404,182.405z"/>
</g>
<path d="M470.975,323.228c-11.823-3.603-24.091-1.508-34.353,2.129c1.504-3.116,2.887-6.298,4.146-9.545
	c2.604,0.239,5.825,0.434,9.45,0.434c12.931,0,30.866-2.475,43.189-14.215c20.85-19.863,15.985-57.058,15.768-58.632
	c-0.447-3.24-2.916-5.832-6.131-6.435c-1.56-0.293-38.477-6.952-59.327,12.91c-3.042,2.898-3.158,7.712-0.261,10.755
	c2.899,3.043,7.713,3.159,10.755,0.261c11.198-10.668,30.752-10.509,40.365-9.67c0.429,11.035-1.174,29.808-11.662,39.799
	c-11.181,10.652-30.692,10.512-40.321,9.674c-0.148-3.896-0.1-9.392,0.752-15.279c0.601-4.158-2.281-8.016-6.439-8.618
	c-4.159-0.606-8.016,2.282-8.618,6.439c-0.396,2.734-0.645,5.383-0.793,7.876c-0.677-1.594-1.453-3.163-2.344-4.695
	c-14.469-24.898-51.776-28.819-53.356-28.973c-3.253-0.315-6.35,1.48-7.686,4.466c-0.648,1.45-15.712,35.805-1.243,60.703
	c8.908,15.329,26.464,22.699,39.017,26.142c-8.806,9.148-19.049,16.93-30.288,23.141c2.557-11.639,3.348-26.089-3.076-38.659
	c-13.104-25.644-50.144-31.572-51.714-31.813c-3.233-0.493-6.421,1.135-7.915,4.045c-0.726,1.413-17.624,34.904-4.52,60.547
	c4.937,9.662,13.273,16.523,21.829,21.338c-16.778,2.601-34.291,2.171-51.59-1.715c9.018-8.791,20.004-23.081,20.007-40.563
	c0.005-28.817-30.297-50.971-31.587-51.9c-2.654-1.913-6.233-1.913-8.888-0.001c-1.29,0.928-31.602,23.071-31.607,51.888
	c-0.004,17.992,11.835,32.602,21.17,41.327c-19.977,6.201-40.753,7.366-60.831,3.611c10.164-4.838,20.877-12.372,26.765-23.894
	c13.112-25.66-3.797-59.174-4.523-60.588c-1.494-2.91-4.679-4.541-7.915-4.045c-1.571,0.24-38.637,6.173-51.749,31.833
	c-7.081,13.857-5.404,29.995-2.252,42.141c-12.338-6.999-23.256-15.874-32.447-26.271c12.622-3.285,31.12-10.63,40.347-26.507
	c14.479-24.914-0.595-59.291-1.244-60.744c-1.335-2.985-4.424-4.785-7.685-4.466c-0.228,0.022-5.661,0.567-13.037,2.481
	c-4.066,1.055-6.508,5.207-5.452,9.273s5.21,6.505,9.273,5.452c1.846-0.479,3.546-0.856,5.021-1.15
	c3.057,9.182,7.737,28.145-0.028,41.508c-7.767,13.364-26.56,18.686-36.046,20.575c-3.057-9.182-7.735-28.142,0.03-41.504
	c1.79-3.081,4.314-5.941,7.504-8.503c3.275-2.631,3.797-7.419,1.166-10.694c-2.632-3.275-7.419-3.798-10.694-1.166
	c-4.652,3.737-8.397,8.017-11.13,12.72c-0.897,1.542-1.677,3.121-2.358,4.725c-0.772-12.811-4.27-29.898-16.231-41.292
	c-7.383-7.034-17.523-11.519-30.14-13.333c-4.163-0.598-8.013,2.289-8.612,6.447c-0.597,4.158,2.289,8.013,6.447,8.612
	c9.424,1.354,16.763,4.48,21.81,9.289c11.192,10.662,11.996,30.178,11.627,39.843c-9.644,0.837-29.171,0.977-40.359-9.683
	c-15.196-14.477-11.24-45.279-11.201-45.576c0.574-4.161-2.333-8.001-6.495-8.576c-4.159-0.569-8.001,2.333-8.576,6.495
	c-0.217,1.575-5.086,38.795,15.778,58.672c12.332,11.749,30.277,14.224,43.217,14.223c3.623,0,6.842-0.196,9.446-0.434
	c1.236,3.234,2.582,6.408,4.033,9.518c-10.242-3.612-22.468-5.678-34.252-2.085C15.349,331.7,3,367.148,2.489,368.653
	c-1.054,3.096-0.01,6.52,2.592,8.502c1.067,0.812,22.587,16.965,45.838,16.965c4.317,0,8.697-0.557,13.014-1.873
	c17.631-5.375,29.027-21.805,35.091-33.35c4.241,4.832,8.817,9.37,13.699,13.592c-4.145,0.516-8.282,1.552-12.281,3.295l0,0
	c-26.417,11.512-34.614,48.144-34.949,49.697c-0.692,3.197,0.738,6.479,3.551,8.148c1.05,0.624,20.411,11.938,41.307,11.937
	c6.309,0,12.762-1.032,18.89-3.703c19.082-8.316,28.654-29.733,32.627-41.574c3.094,1.018,6.216,1.913,9.355,2.712
	c-5.932,3.393-11.472,7.969-15.667,14.164c-16.157,23.86-3.482,59.193-2.934,60.685c1.101,3.002,3.957,4.987,7.14,4.987
	c0.073,0,0.147-0.001,0.22-0.003c1.589-0.046,39.103-1.392,55.26-25.253c11.489-16.967,7.801-38.905,4.411-50.884
	c10.669-1.042,21.298-3.299,31.713-6.793c2.515-0.844,5.012-1.786,7.483-2.77c11.304,3.549,23.051,5.714,34.921,6.523
	c-3.033,11.725-7.059,35.943,5.008,53.764c16.146,23.845,53.634,25.191,55.222,25.236c0.073,0.002,0.147,0.003,0.22,0.003
	c3.183,0,6.04-1.986,7.141-4.989c0.547-1.491,13.197-36.786-2.931-60.639l0,0c-5.174-7.653-12.534-12.979-20.204-16.698
	c4.329-0.952,8.619-2.089,12.855-3.409c3.173,10.651,12.646,35.645,33.633,44.79c6.125,2.669,12.57,3.7,18.877,3.7
	c20.879,0,40.229-11.305,41.278-11.928c2.812-1.669,4.242-4.951,3.551-8.148c-0.336-1.553-8.527-38.159-34.927-49.665
	c-4.806-2.094-9.81-3.171-14.79-3.543c5.636-4.41,10.871-9.2,15.67-14.338c5.916,11.566,17.46,28.813,35.598,34.342
	c4.315,1.315,8.689,1.872,13.005,1.872c23.234,0,44.742-16.142,45.808-16.953c2.602-1.982,3.646-5.406,2.592-8.502
	C510.862,367.049,498.522,331.625,470.975,323.228z M59.496,377.691c-14.809,4.514-32.234-4.412-40.454-9.479
	c4.57-10.062,14.436-26.138,28.306-30.366c14.806-4.516,32.233,4.411,40.454,9.479C83.233,357.387,73.367,373.463,59.496,377.691z
	 M317.917,359.091c-7.038-13.773-1.317-32.474,2.225-41.449c10.7,2.73,28.238,9.615,34.83,22.513
	c6.716,13.144,1.813,30.771-1.727,40.154c-0.752,0.279-1.505,0.555-2.263,0.82C340.211,378.123,324.158,371.305,317.917,359.091z
	 M237.748,345.062c0.003-15.456,13.581-29.498,20.834-35.897c7.256,6.404,20.825,20.449,20.822,35.904
	c-0.003,15.442-13.527,28.509-20.567,34.265C251.67,373.567,237.745,360.386,237.748,345.062z M158.998,340.226
	c7.034-13.764,25.511-20.092,34.882-22.491c3.549,9.003,9.244,27.683,2.212,41.447c-7.045,13.786-25.572,20.114-34.927,22.503
	C157.103,371.405,152.4,353.139,158.998,340.226z M123.162,427.912c-14.17,6.175-32.468-0.659-41.231-4.752
	c2.971-9.21,10.421-27.262,24.59-33.436l0,0c11.47-5,25.645-1.473,35.279,2.223c0.284,0.143,0.563,0.293,0.848,0.434
	c1.66,0.827,3.336,1.605,5.016,2.364C144.636,404.035,137.196,421.797,123.162,427.912z M202.642,449.047
	c-8.682,12.82-27.845,16.829-37.422,18.054c-2.77-10.699-5.201-29.404,2.93-41.411c8.659-12.786,27.184-16.026,36.24-16.847
	C207.092,417.637,211.235,436.359,202.642,449.047z M345.825,425.552L345.825,425.552c8.663,12.813,5.284,32.071,2.871,41.413
	c-10.953-1.399-29.202-6.082-37.325-18.076c-8.661-12.79-5.294-32.019-2.879-41.373
	C318.107,408.732,337.146,412.719,345.825,425.552z M431.995,423.067c-10.003,4.68-27.926,10.489-41.206,4.701
	c-14.178-6.179-21.624-24.263-24.581-33.447c10.003-4.679,27.928-10.488,41.206-4.701
	C421.591,395.799,429.037,413.883,431.995,423.067z M376.02,314.966c-7.771-13.371-3.069-32.354-0.017-41.508
	c10.832,2.149,28.717,8.076,35.996,20.601c7.771,13.371,3.069,32.354,0.017,41.508C401.183,333.418,383.297,327.49,376.02,314.966z
	 M454.405,377.584c-14.793-4.51-24.266-21.619-28.259-30.404c9.4-5.797,26.538-13.625,40.394-9.402
	c14.794,4.51,24.267,21.619,28.26,30.404C485.401,373.98,468.263,381.808,454.405,377.584z"/>
<path d="M34.561,126.811l-7.051,45.328c-0.439,2.818,0.737,5.646,3.045,7.323c2.307,1.678,5.36,1.923,7.905,0.634l40.93-20.713
	l40.93,20.713c1.084,0.55,2.261,0.819,3.433,0.819c1.578,0,3.148-0.491,4.472-1.453c2.308-1.676,3.484-4.504,3.045-7.323
	l-7.052-45.328l32.348-32.527c2.011-2.022,2.722-5.001,1.841-7.714c-0.881-2.713-3.207-4.705-6.023-5.158l-45.288-7.301
	L86.159,33.295c-1.302-2.539-3.915-4.135-6.768-4.135s-5.466,1.596-6.768,4.135l-5.6,10.917c-1.918,3.738-0.442,8.323,3.296,10.24
	c3.023,1.551,6.601,0.881,8.873-1.409L95.319,84.48c1.104,2.153,3.168,3.652,5.557,4.038l34.451,5.554l-24.607,24.743
	c-1.707,1.716-2.495,4.141-2.123,6.532l5.364,34.48l-31.135-15.756c-2.159-1.092-4.71-1.092-6.868,0l-31.135,15.757l5.363-34.481
	c0.372-2.391-0.416-4.817-2.123-6.532L23.456,94.071l34.451-5.554c2.388-0.385,4.452-1.884,5.557-4.037l3.29-6.413
	c1.918-3.738,0.442-8.323-3.296-10.24c-3.736-1.919-8.322-0.442-10.239,3.295l-1.533,2.989l-45.288,7.3
	c-2.816,0.454-5.142,2.446-6.023,5.158c-0.881,2.713-0.17,5.692,1.841,7.714L34.561,126.811z"/>
<path d="M387.779,126.811l-7.052,45.328c-0.439,2.818,0.737,5.646,3.045,7.323c1.325,0.962,2.894,1.453,4.472,1.453
	c1.171,0,2.349-0.271,3.433-0.819l40.931-20.713l40.93,20.713c2.546,1.289,5.598,1.044,7.906-0.634
	c2.308-1.676,3.484-4.504,3.045-7.323l-7.052-45.328l32.348-32.527c2.011-2.023,2.722-5.001,1.841-7.714
	c-0.881-2.713-3.207-4.705-6.023-5.158l-45.288-7.301l-20.938-40.816c-1.302-2.538-3.915-4.135-6.768-4.135
	c-2.853,0-5.466,1.596-6.768,4.134l-3.377,6.582c-1.918,3.738-0.442,8.323,3.295,10.24c1.751,0.899,3.685,1.052,5.445,0.578
	l17.331,33.784c1.104,2.153,3.168,3.652,5.557,4.038l34.451,5.554l-24.607,24.743c-1.707,1.716-2.495,4.141-2.123,6.533l5.364,34.48
	l-31.135-15.756c-2.16-1.092-4.711-1.092-6.869,0l-31.136,15.757l5.364-34.481c0.372-2.392-0.416-4.817-2.123-6.533l-24.607-24.743
	l34.451-5.554c2.388-0.385,4.452-1.883,5.557-4.037l3.303-6.439c1.918-3.738,0.442-8.323-3.295-10.24
	c-3.74-1.92-8.324-0.442-10.24,3.295l-1.547,3.014l-45.288,7.301c-2.816,0.454-5.142,2.446-6.023,5.158
	c-0.881,2.713-0.17,5.692,1.841,7.714L387.779,126.811z"/>
<path d="M213.039,226.461l-7.052,45.328c-0.439,2.818,0.737,5.646,3.045,7.323c2.307,1.677,5.36,1.923,7.905,0.634l40.93-20.713
	l40.93,20.713c1.084,0.55,2.261,0.819,3.433,0.819c1.578,0,3.148-0.491,4.472-1.453c2.308-1.677,3.484-4.504,3.045-7.323
	l-7.051-45.328l32.348-32.527c2.011-2.023,2.722-5.001,1.841-7.714c-0.881-2.713-3.207-4.705-6.023-5.158l-45.288-7.301
	l-20.939-40.816c-1.302-2.539-3.915-4.135-6.768-4.135c-2.853,0-5.466,1.596-6.768,4.135l-3.629,7.073
	c-1.918,3.738-0.442,8.323,3.296,10.24c1.897,0.973,4.011,1.072,5.881,0.446l17.147,33.424c1.104,2.153,3.168,3.652,5.557,4.038
	l34.451,5.554l-24.607,24.743c-1.707,1.716-2.495,4.141-2.123,6.532l5.363,34.481L261.3,243.72c-2.159-1.092-4.71-1.092-6.868,0
	l-31.135,15.756l5.364-34.48c0.372-2.392-0.416-4.817-2.123-6.532l-24.607-24.743l34.451-5.554c2.388-0.385,4.452-1.884,5.557-4.038
	l2.987-5.824c1.918-3.738,0.442-8.323-3.296-10.24c-3.737-1.917-8.323-0.441-10.24,3.296l-1.23,2.399l-45.288,7.301
	c-2.816,0.454-5.142,2.446-6.023,5.158c-0.881,2.713-0.17,5.692,1.841,7.714L213.039,226.461z"/>
</svg>