<?xml version="1.0" encoding="iso-8859-1"?>
<!-- Uploaded to: SVG Repo, www.svgrepo.com, Generator: SVG Repo Mixer Tools -->
<svg height="800px" width="800px" version="1.1" id="Layer_1" xmlns="http://www.w3.org/2000/svg" xmlns:xlink="http://www.w3.org/1999/xlink" 
	 viewBox="0 0 512 512" xml:space="preserve">
<path style="fill:#CCA400;" d="M204.414,412.035c-22.378,0-44.619-5.181-65.238-15.442c-35.092-17.462-61.283-47.545-73.749-84.707
	c-1.377-4.105,0.834-8.549,4.939-9.926c4.104-1.376,8.549,0.834,9.926,4.94c11.134,33.191,34.527,60.059,65.869,75.656
	c31.342,15.596,66.882,18.054,100.073,6.921c3.162-1.061,6.315-2.253,9.374-3.542c3.993-1.684,8.588,0.189,10.27,4.178
	c1.682,3.99-0.188,8.587-4.178,10.27c-3.42,1.442-6.947,2.774-10.48,3.961C235.895,409.483,220.12,412.035,204.414,412.035z"/>
<path style="fill:#FFCD00;" d="M4.76,244.119c0,0-4.94,35.77,13.903,53.72c18.842,17.95,54.331,11.285,54.331,11.285
	s4.94-35.77-13.903-53.72c-7.407-7.057-17.387-10.309-26.771-11.658L4.76,244.119z"/>
<path style="opacity:0.29;fill:#CCA400;enable-background:new    ;" d="M72.993,288.549c0,0-35.489,6.666-54.331-11.285
	c-9.251-8.813-12.763-21.915-13.948-32.977c-0.448,3.731-3.804,36.447,13.948,53.36c18.842,17.95,54.331,11.285,54.331,11.285
	s1.274-9.275,0.045-20.744C73.011,288.417,72.993,288.549,72.993,288.549z"/>
<path style="fill:#FFCD00;" d="M38.674,332.886c24.893-7.589,53.618,14.291,53.618,14.291s-11.635,34.183-36.528,41.772
	s-53.617-14.29-53.617-14.29S13.781,340.474,38.674,332.886z"/>
<path style="opacity:0.29;fill:#CCA400;enable-background:new    ;" d="M55.765,374.287c-18.605,5.672-39.345-5.115-48.638-10.928
	c-3.348,6.395-4.98,11.189-4.98,11.189s28.725,21.879,53.618,14.291s36.528-41.772,36.528-41.772s-1.838-1.399-4.98-3.364
	C81.72,354.386,71.337,369.54,55.765,374.287z"/>
<path style="fill:#FFCD00;" d="M127.217,267.68c6.99-2.204,12.231-2.342,12.231-2.342s14.737,32.964,1.662,55.465
	c-13.076,22.5-49.013,26.017-49.013,26.017s-14.737-32.964-1.662-55.465c2.501-4.304,5.839-7.914,9.602-10.937
	C100.036,280.418,108.24,273.665,127.217,267.68z"/>
<path style="opacity:0.29;fill:#CCA400;enable-background:new    ;" d="M141.108,304.164c-13.076,22.5-49.013,26.017-49.013,26.017
	s-4.9-10.982-6.538-24.589c-2.786,19.87,6.538,40.758,6.538,40.758s35.937-3.516,49.013-26.017
	c5.53-9.517,6.078-20.901,4.877-30.876C145.271,294.548,143.775,299.574,141.108,304.164z"/>
<path style="fill:#FFCD00;" d="M98.811,386.667c23.857-10.397,54.905,8.04,54.905,8.04s-7.633,35.293-31.49,45.689
	c-23.857,10.396-54.905-8.04-54.905-8.04S74.954,397.064,98.811,386.667z"/>
<path style="opacity:0.29;fill:#CCA400;enable-background:new    ;" d="M122.226,423.823c-18.288,7.97-40.785-0.998-50.299-5.622
	c-3.273,7.902-4.605,14.037-4.605,14.037s31.047,18.436,54.905,8.04c23.857-10.396,31.49-45.689,31.49-45.689
	s-1.708-1.01-4.605-2.418C144.53,403.23,136.141,417.758,122.226,423.823z"/>
<path style="fill:#FFCD00;" d="M149.046,339.271c11.842-23.173,47.536-28.626,47.536-28.626s16.496,32.121,4.655,55.294
	c-11.842,23.173-47.536,28.626-47.536,28.626S137.204,362.446,149.046,339.271z"/>
<path style="opacity:0.29;fill:#CCA400;enable-background:new    ;" d="M201.237,351.43c-11.842,23.173-47.536,28.626-47.536,28.626
	s-6.553-12.772-8.431-28.017c-2.949,20.798,8.431,42.983,8.431,42.983s35.695-5.452,47.536-28.626
	c4.375-8.563,4.877-18.343,3.777-27.277C204.415,343.346,203.238,347.516,201.237,351.43z"/>
<path style="fill:#FFCD00;" d="M158.969,426.526c14.592-21.548,49.299-21.091,49.299-21.091s13.823,32.405-0.768,53.954
	s-50.686,22.585-50.686,22.585S144.377,448.074,158.969,426.526z"/>
<g>
	<path style="opacity:0.29;fill:#CCA400;enable-background:new    ;" d="M207.499,442.882
		c-14.592,21.548-50.686,22.585-50.686,22.585s-3.23-8.824-4.464-20.324c-2.26,18.287,4.464,36.65,4.464,36.65
		s36.094-1.037,50.686-22.585c6.83-10.087,7.434-22.552,6.144-32.959C212.82,432.02,210.97,437.758,207.499,442.882z"/>
	<path style="fill:#CCA400;" d="M305.867,408.589c-16.912,0-33.764-2.652-49.705-7.999c-4.105-1.377-6.315-5.82-4.939-9.926
		c1.377-4.105,5.823-6.315,9.926-4.939c71.17,23.875,150.182-12.246,172.534-78.876c1.377-4.105,5.824-6.315,9.926-4.939
		c4.105,1.377,6.315,5.82,4.939,9.926c-12.336,36.777-39.81,66.242-77.36,82.971C350.639,403.962,328.202,408.589,305.867,408.589z"
		/>
</g>
<g>
	<path style="fill:#FFCD00;" d="M454.872,255.395c18.388-18.388,54.29-11.276,54.29-11.276s4.936,35.743-13.892,53.679
		s-54.29,11.276-54.29,11.276s-2.272-11.128,0.342-23.851C442.022,281.821,439.293,270.975,454.872,255.395z"/>
	<path style="fill:#FFCD00;" d="M475.273,332.819c-24.874-7.583-53.578,14.28-53.578,14.28s11.625,34.157,36.5,41.741
		c24.874,7.583,53.578-14.28,53.578-14.28S500.148,340.401,475.273,332.819z"/>
	<path style="fill:#FFCD00;" d="M423.553,291.318c-13.066-22.484-48.976-25.997-48.976-25.997s-14.727,32.939-1.66,55.423
		c13.066,22.484,48.976,25.997,48.976,25.997S436.619,313.801,423.553,291.318z"/>
	<path style="fill:#FFCD00;" d="M415.181,386.559c-23.839-10.389-54.863,8.034-54.863,8.034s7.626,35.266,31.466,45.655
		c23.839,10.389,54.863-8.034,54.863-8.034S439.021,396.948,415.181,386.559z"/>
	<path style="fill:#FFCD00;" d="M364.984,339.199c-11.832-23.157-47.501-28.604-47.501-28.604s-16.484,32.097-4.651,55.253
		c11.832,23.156,47.501,28.604,47.501,28.604S376.816,362.355,364.984,339.199z"/>
	<path style="fill:#FFCD00;" d="M355.069,426.387c-14.557-21.53-50.383-22.554-50.647-22.568c0,0-12.427,33.874,2.153,55.406
		s50.647,22.568,50.647,22.568S369.634,447.93,355.069,426.387z"/>
	<polygon style="fill:#FFCD00;" points="68.211,41.338 73.983,30.087 97.372,75.682 147.965,83.837 111.83,120.173 119.706,170.81 
		73.983,147.671 28.259,170.81 36.136,120.173 0,83.837 50.592,75.682 53.983,69.072 	"/>
	<polygon style="fill:#FFCD00;" points="434.538,36.871 438.017,30.087 461.408,75.682 512,83.837 475.864,120.173 483.741,170.81 
		438.017,147.671 392.293,170.81 400.17,120.173 364.035,83.837 414.626,75.682 418.031,69.046 	"/>
	<polygon style="fill:#FFCD00;" points="254.186,140.078 257.926,132.787 281.317,178.383 331.909,186.539 295.773,222.874 
		303.65,273.511 257.926,250.372 212.202,273.511 220.079,222.874 183.943,186.539 234.535,178.383 237.614,172.382 	"/>
	<path style="fill:#FFCD00;" d="M287.959,347.832c-0.005,26.024-29.004,45.1-29.004,45.1s-29.611-19.088-29.607-45.111
		c0.005-26.024,29.314-47.115,29.314-47.115S287.965,321.808,287.959,347.832z"/>
</g>
<g>
	<path style="opacity:0.29;fill:#CCA400;enable-background:new    ;" d="M258.957,373.191c0,0-22.377-14.434-28.218-35.307
		c-0.875,3.204-1.388,6.527-1.389,9.936c-0.005,26.024,29.607,45.111,29.607,45.111s28.999-19.076,29.004-45.1
		c0.001-3.397-0.507-6.706-1.375-9.9C280.843,358.783,258.957,373.191,258.957,373.191z"/>
	<path style="opacity:0.29;fill:#CCA400;enable-background:new    ;" d="M440.682,288.549c0,0,35.489,6.666,54.331-11.285
		c9.251-8.813,12.763-21.915,13.948-32.977c0.448,3.731,3.804,36.447-13.948,53.36c-18.842,17.95-54.331,11.285-54.331,11.285
		s-1.274-9.275-0.045-20.744C440.664,288.417,440.682,288.549,440.682,288.549z"/>
	<path style="opacity:0.29;fill:#CCA400;enable-background:new    ;" d="M457.91,374.287c18.605,5.672,39.345-5.115,48.638-10.928
		c3.348,6.395,4.98,11.189,4.98,11.189s-28.725,21.879-53.618,14.291c-24.893-7.589-36.528-41.772-36.528-41.772
		s1.838-1.399,4.98-3.364C431.955,354.386,442.338,369.54,457.91,374.287z"/>
	<path style="opacity:0.29;fill:#CCA400;enable-background:new    ;" d="M372.567,304.164c13.076,22.5,49.013,26.017,49.013,26.017
		s4.9-10.982,6.538-24.589c2.786,19.87-6.538,40.758-6.538,40.758s-35.937-3.516-49.013-26.017
		c-5.53-9.517-6.078-20.901-4.877-30.876C368.404,294.548,369.9,299.574,372.567,304.164z"/>
	<path style="opacity:0.29;fill:#CCA400;enable-background:new    ;" d="M391.449,423.823c18.288,7.97,40.785-0.998,50.299-5.622
		c3.273,7.902,4.605,14.037,4.605,14.037s-31.047,18.436-54.905,8.04c-23.857-10.396-31.49-45.689-31.49-45.689
		s1.708-1.01,4.605-2.418C369.145,403.23,377.533,417.758,391.449,423.823z"/>
	<path style="opacity:0.29;fill:#CCA400;enable-background:new    ;" d="M312.437,351.43c11.842,23.173,47.536,28.626,47.536,28.626
		s6.553-12.772,8.431-28.017c2.949,20.798-8.431,42.983-8.431,42.983s-35.695-5.452-47.536-28.626
		c-4.375-8.563-4.877-18.343-3.777-27.277C309.26,343.346,310.437,347.516,312.437,351.43z"/>
	<path style="opacity:0.29;fill:#CCA400;enable-background:new    ;" d="M306.175,442.882
		c14.592,21.548,50.686,22.585,50.686,22.585s3.23-8.824,4.464-20.324c2.26,18.287-4.464,36.65-4.464,36.65
		s-36.094-1.037-50.686-22.585c-6.83-10.087-7.434-22.552-6.144-32.959C300.855,432.02,302.706,437.758,306.175,442.882z"/>
</g>
<g style="opacity:0.32;">
	<path style="fill:#FFFFFF;" d="M112.52,78.124l-15.147-2.442L73.983,30.087l-5.772,11.251L53.983,69.072l-3.391,6.609L0,83.837
		l36.136,36.335l-0.717,4.608C56.587,118.938,87.199,105.991,112.52,78.124z"/>
</g>
<g style="opacity:0.24;">
	<path style="fill:#FFFFFF;" d="M472.58,77.423l-11.172-1.801l-23.391-45.595l-3.48,6.784l-16.506,32.175l-3.404,6.636
		l-50.592,8.156l36.136,36.335l-0.736,4.728C421.404,119.16,452.71,106.285,472.58,77.423z"/>
</g>
<g style="opacity:0.24;">
	<path style="fill:#FFFFFF;" d="M292.489,180.184l-11.172-1.801l-23.391-45.595l-3.48,6.784l-16.506,32.175l-3.404,6.636
		l-50.592,8.156l36.136,36.335l-0.736,4.728C241.312,221.921,272.618,209.046,292.489,180.184z"/>
</g>
</svg>